<svg width="172" height="101" viewBox="0 0 172 101" fill="none" xmlns="http://www.w3.org/2000/svg">
<path d="M63.4719 57.7564C61.5561 56.6211 60.4209 54.6344 60.4209 52.5058V9.29466C60.4209 6.03076 63.1171 3.3345 66.452 3.19259C66.5229 3.19259 66.5939 3.19259 66.7358 3.19259C67.7292 3.19259 68.7225 3.47641 69.574 3.97309L108.528 25.5432C110.444 26.6075 111.65 28.5942 111.65 30.9357C111.65 33.2062 110.515 35.2639 108.528 36.3282L69.574 57.8983C68.6516 58.395 67.6582 58.6078 66.6648 58.6078C65.5296 58.6078 64.4652 58.324 63.4719 57.7564ZM66.3101 0.496338C61.5561 0.709201 57.7246 4.61168 57.7246 9.29466V52.5058C57.7246 55.6278 59.3566 58.4659 62.1238 60.0269C63.5429 60.8784 65.1038 61.3041 66.6648 61.3041C68.1549 61.3041 69.574 60.9493 70.8511 60.2398L109.805 38.6697C112.643 37.1087 114.275 34.1996 114.275 30.9357C114.275 27.6718 112.572 24.7627 109.805 23.2017L70.8511 1.56065C69.574 0.851109 68.1549 0.496338 66.6648 0.496338C66.5229 0.496338 66.452 0.496338 66.3101 0.496338Z" fill="url(#paint0_linear_681_3410)"/>
<path d="M76.1733 0C75.109 0 74.2576 0.780497 74.0447 1.77386L65.1754 34.5547C65.1045 34.7676 65.1045 34.9095 65.1045 35.1223C65.1045 36.3286 66.0979 37.251 67.2331 37.251H78.16L75.8186 43.7078C75.8186 43.8497 75.7476 43.9916 75.7476 44.1335C75.7476 45.3398 76.741 46.2622 77.8763 46.2622C78.302 46.2622 78.6567 46.1203 79.0115 45.9074L104.2 32.0004C104.484 31.6456 104.626 31.2199 104.626 30.7941C104.626 29.5879 103.633 28.6655 102.497 28.6655H81.1401L91.0028 3.05102C91.1447 2.76721 91.2156 2.4834 91.2156 2.19959C91.2156 0.993364 90.2223 0.0709586 89.087 0.0709586H76.1733V0Z" fill="url(#paint1_linear_681_3410)"/>
<path fill-rule="evenodd" clip-rule="evenodd" d="M127.658 93.2314H122.429L124.663 87.9002C124.683 87.8585 124.704 87.8104 124.726 87.7603C124.81 87.5662 124.907 87.3417 125.069 87.3417C125.255 87.3417 125.356 87.598 125.45 87.8363L125.475 87.9002L127.658 93.2314ZM125.069 85.4124C123.901 85.4124 123.444 86.0216 122.987 87.0879L117.199 100.847H119.331L121.616 95.11H128.115L130.857 100.847H132.989L127.201 87.0879C126.744 86.0216 126.186 85.4124 125.069 85.4124ZM103.998 99.2736C103.541 100.34 103.186 101 102.119 101C101.053 101 100.698 100.34 100.241 99.2736L95.7221 87.9512C95.6205 87.7482 95.4682 87.4943 95.3159 87.4943C95.1636 87.4943 95.0112 87.6974 95.0112 87.9512L95.062 100.898H93.0311V87.1897C93.0311 86.0726 93.7927 85.4634 94.9605 85.4634C96.2806 85.4634 96.7375 86.225 97.1437 87.1897L101.713 98.4612C101.815 98.7659 101.916 98.969 102.119 98.969C102.272 98.969 102.424 98.7151 102.526 98.4612L107.095 87.1897C107.501 86.1742 107.958 85.4634 109.278 85.4634C110.497 85.4634 111.259 86.0726 111.259 87.1897V100.898H109.228L109.278 87.9512C109.278 87.5451 109.075 87.4943 108.974 87.4943C108.822 87.4943 108.669 87.7482 108.568 87.9512L103.998 99.2736ZM22.865 85.5647H18.9555V100.847H22.865V85.5647ZM2.50353 100.849C1.08189 100.849 0.167969 100.138 0.167969 98.5135V85.5664H4.0775V96.7364C4.0775 97.498 4.33136 97.7519 5.09296 97.7519H12.9628V100.798H2.50353V100.849ZM33.6274 93.2316C33.6274 89.6267 34.6429 88.6621 37.6893 88.6621H43.9851V85.6157H36.2168C31.0888 85.6157 29.6671 88.459 29.6671 93.2316C29.6671 98.0043 31.0888 100.848 36.2168 100.848H42.005C43.3758 100.848 44.2898 100.137 44.2898 98.512V93.0793H40.3802V96.7857C40.3802 97.5473 40.1264 97.8012 39.3648 97.8012H37.6893C34.6429 97.8012 33.6274 96.8365 33.6274 93.2316ZM61.7047 85.5647V91.4543H55.0026V85.5647H51.0931V100.847H55.0026V94.5007H61.7047V100.847H65.6142V85.5647H61.7047ZM71.6051 88.6618V85.5647H86.837V88.6618H81.2012V100.847H77.2409V88.6618H71.6051ZM147.256 93.3839C149.44 93.3839 149.744 92.3177 149.744 90.2868C149.744 88.3067 149.338 87.2912 147.256 87.2912H141.925C141.062 87.2912 140.96 87.5958 140.96 88.3066V93.4347H147.256V93.3839ZM138.93 100.848V87.6466C138.93 86.0726 139.691 85.6157 140.96 85.6157H147.967C151.064 85.6157 151.877 87.3927 151.877 90.2868C151.877 93.2824 151.064 95.0595 147.967 95.0595H140.96V100.898H138.93V100.848ZM169.699 90.2868C169.699 92.3177 169.394 93.3839 167.211 93.3839V93.4347H160.915V88.3066C160.915 87.5958 161.016 87.2912 161.88 87.2912H167.211C169.292 87.2912 169.699 88.3067 169.699 90.2868ZM158.884 87.6466V100.848V100.898H160.915V95.0595H167.922C171.019 95.0595 171.831 93.2824 171.831 90.2868C171.831 87.3927 171.019 85.6157 167.922 85.6157H160.915C159.646 85.6157 158.884 86.0726 158.884 87.6466Z" fill="white"/>
<defs>
<linearGradient id="paint0_linear_681_3410" x1="57.7246" y1="0.496338" x2="57.7246" y2="61.3041" gradientUnits="userSpaceOnUse">
<stop stop-color="#FFA1FF"/>
<stop offset="1" stop-color="#D905F0"/>
</linearGradient>
<linearGradient id="paint1_linear_681_3410" x1="65.1045" y1="0" x2="65.1045" y2="46.2622" gradientUnits="userSpaceOnUse">
<stop stop-color="#29FFF5"/>
<stop offset="1" stop-color="#2973FF"/>
</linearGradient>
</defs>
</svg>
