<svg width="206" height="46" viewBox="0 0 206 46" fill="none" xmlns="http://www.w3.org/2000/svg">
<path d="M4.51757 43.1879C3.11132 42.3546 2.27799 40.8963 2.27799 39.3338V7.61501C2.27799 5.21917 4.25716 3.24 6.70507 3.13584C6.75716 3.13584 6.80925 3.13584 6.91342 3.13584C7.64258 3.13584 8.37175 3.34417 8.99675 3.70876L37.5905 19.5421C38.9967 20.3233 39.8822 21.7817 39.8822 23.5004C39.8822 25.1671 39.0488 26.6775 37.5905 27.4588L8.99675 43.2921C8.31967 43.6567 7.59048 43.8129 6.86132 43.8129C6.02798 43.8129 5.24673 43.6046 4.51757 43.1879ZM6.6009 1.15668C3.11132 1.31293 0.298828 4.17751 0.298828 7.61501V39.3338C0.298828 41.6254 1.49675 43.7088 3.528 44.8546C4.56967 45.4796 5.71548 45.7921 6.86132 45.7921C7.95507 45.7921 8.99675 45.5317 9.93425 45.0108L38.528 29.1775C40.6113 28.0317 41.8093 25.8963 41.8093 23.5004C41.8093 21.1046 40.5593 18.9692 38.528 17.8233L9.93425 1.93793C8.99675 1.41709 7.95507 1.15668 6.86132 1.15668C6.75715 1.15668 6.70507 1.15668 6.6009 1.15668Z" fill="url(#paint0_linear_681_3293)"/>
<path d="M13.8408 0.792114C13.0596 0.792114 12.4346 1.36503 12.2783 2.0942L5.76789 26.1567C5.71581 26.313 5.71582 26.4171 5.71582 26.5734C5.71582 27.4588 6.44499 28.1359 7.27832 28.1359H15.2991L13.5804 32.8755C13.5804 32.9796 13.5283 33.0838 13.5283 33.188C13.5283 34.0734 14.2575 34.7505 15.0908 34.7505C15.4033 34.7505 15.6637 34.6463 15.9241 34.49L34.4137 24.2817C34.6221 24.0213 34.7262 23.7088 34.7262 23.3963C34.7262 22.5109 33.997 21.8338 33.1637 21.8338H17.4866L24.7262 3.03169C24.8304 2.82336 24.8825 2.61503 24.8825 2.4067C24.8825 1.52128 24.1533 0.844201 23.32 0.844201H13.8408V0.792114Z" fill="url(#paint1_linear_681_3293)"/>
<path fill-rule="evenodd" clip-rule="evenodd" d="M167.72 23.3139H163.223L165.144 18.73C165.162 18.6942 165.18 18.6528 165.199 18.6097C165.271 18.4428 165.355 18.2498 165.493 18.2498C165.654 18.2498 165.74 18.4702 165.821 18.6751L165.843 18.73L167.72 23.3139ZM165.493 16.5909C164.489 16.5909 164.096 17.1148 163.703 18.0315L158.727 29.8624H160.56L162.525 24.9292H168.113L170.47 29.8624H172.304L167.327 18.0315C166.934 17.1148 166.454 16.5909 165.493 16.5909ZM147.376 28.5091C146.983 29.4258 146.677 29.9934 145.761 29.9934C144.844 29.9934 144.538 29.4258 144.145 28.5091L140.26 18.7737C140.173 18.5991 140.042 18.3808 139.911 18.3808C139.78 18.3808 139.649 18.5554 139.649 18.7737L139.692 29.9061H137.946V18.1189C137.946 17.1584 138.601 16.6345 139.605 16.6345C140.74 16.6345 141.133 17.2894 141.482 18.1189L145.411 27.8105C145.499 28.0725 145.586 28.2471 145.761 28.2471C145.891 28.2471 146.022 28.0288 146.11 27.8105L150.039 18.1189C150.388 17.2457 150.781 16.6345 151.916 16.6345C152.964 16.6345 153.619 17.1584 153.619 18.1189V29.9061H151.872L151.916 18.7737C151.916 18.4244 151.741 18.3808 151.654 18.3808C151.523 18.3808 151.392 18.5991 151.305 18.7737L147.376 28.5091ZM77.6131 16.7219H74.2515V29.8624H77.6131V16.7219ZM60.1068 29.8638C58.8844 29.8638 58.0986 29.2527 58.0986 27.8556V16.7233H61.4602V26.3277C61.4602 26.9825 61.6785 27.2008 62.3333 27.2008H69.1V29.8202H60.1068V29.8638ZM86.8681 23.3139C86.8681 20.2143 87.7413 19.3849 90.3606 19.3849H95.774V16.7655H89.0946C84.6853 16.7655 83.4629 19.2102 83.4629 23.3139C83.4629 27.4176 84.6853 29.8624 89.0946 29.8624H94.0714C95.2502 29.8624 96.036 29.2512 96.036 27.8542V23.183H92.6744V26.3699C92.6744 27.0247 92.4562 27.243 91.8013 27.243H90.3606C87.7413 27.243 86.8681 26.4135 86.8681 23.3139ZM111.01 16.7219V21.786H105.247V16.7219H101.886V29.8624H105.247V24.4054H111.01V29.8624H114.371V16.7219H111.01ZM119.523 19.3849V16.7219H132.62V19.3849H127.774V29.8624H124.369V19.3849H119.523ZM184.571 23.4449C186.448 23.4449 186.71 22.5281 186.71 20.7819C186.71 19.0793 186.361 18.2061 184.571 18.2061H179.987C179.245 18.2061 179.157 18.4681 179.157 19.0793V23.4886H184.571V23.4449ZM177.411 29.8624V18.5117C177.411 17.1584 178.066 16.7655 179.157 16.7655H185.182C187.845 16.7655 188.544 18.2934 188.544 20.7819C188.544 23.3576 187.845 24.8856 185.182 24.8856H179.157V29.906H177.411V29.8624ZM203.867 20.7819C203.867 22.5281 203.605 23.4449 201.728 23.4449V23.4886H196.315V19.0793C196.315 18.4681 196.402 18.2061 197.144 18.2061H201.728C203.518 18.2061 203.867 19.0793 203.867 20.7819ZM194.569 18.5117V29.8624V29.906H196.315V24.8856H202.339C205.003 24.8856 205.701 23.3576 205.701 20.7819C205.701 18.2934 205.003 16.7655 202.339 16.7655H196.315C195.223 16.7655 194.569 17.1584 194.569 18.5117Z" fill="white"/>
<defs>
<linearGradient id="paint0_linear_681_3293" x1="0.298828" y1="1.15668" x2="0.298828" y2="45.7921" gradientUnits="userSpaceOnUse">
<stop stop-color="#FFA1FF"/>
<stop offset="1" stop-color="#D905F0"/>
</linearGradient>
<linearGradient id="paint1_linear_681_3293" x1="5.71582" y1="0.792114" x2="5.71582" y2="34.7505" gradientUnits="userSpaceOnUse">
<stop stop-color="#29FFF5"/>
<stop offset="1" stop-color="#2973FF"/>
</linearGradient>
</defs>
</svg>
