<svg width="19" height="16" viewBox="0 0 19 16" fill="none" xmlns="http://www.w3.org/2000/svg">
<path d="M16.8542 0.99114C16.3129 1.00727 15.7992 1.23347 15.4219 1.62184L6.47818 10.5655L3.7845 7.87184C3.59253 7.67189 3.36259 7.51226 3.10816 7.40229C2.85372 7.29232 2.57991 7.23423 2.30274 7.23141C2.02557 7.22859 1.75063 7.2811 1.49401 7.38587C1.23739 7.49064 1.00425 7.64556 0.808252 7.84156C0.612255 8.03755 0.457337 8.27069 0.352568 8.52731C0.247799 8.78393 0.195286 9.05887 0.198106 9.33604C0.200926 9.61321 0.259021 9.88702 0.36899 10.1415C0.478959 10.3959 0.638589 10.6258 0.838533 10.8178L5.0052 14.9845C5.39592 15.375 5.92574 15.5944 6.47818 15.5944C7.03062 15.5944 7.56045 15.375 7.95116 14.9845L18.3678 4.5678C18.6689 4.27517 18.8745 3.89842 18.9577 3.48692C19.041 3.07542 18.998 2.64837 18.8344 2.26173C18.6707 1.8751 18.3941 1.54691 18.0408 1.32018C17.6874 1.09345 17.2738 0.978764 16.8542 0.99114Z" fill="#73B573"/>
</svg>
